<?xml version="1.0" encoding="UTF-8" standalone="no"?>
<!-- Created with Inkscape (http://www.inkscape.org/) -->

<svg
   version="1.1"
   id="svg1"
   width="1024"
   height="1024"
   viewBox="260 300 500 430"
   xmlns="http://www.w3.org/2000/svg"
   xmlns:svg="http://www.w3.org/2000/svg">
  <defs
     id="defs1" />
  <g
     id="g1"
     style="display:inline">
    <g
       id="g2"
       transform="translate(-13.722995,4.7159309)">
      <path
         style="fill:#b9b9b9;fill-opacity:1"
         d="m 634.11772,677.74543 c 0,-1.87572 0.32359,-2.64306 0.71908,-1.7052 0.39549,0.93786 0.39549,2.47254 0,3.4104 -0.39549,0.93786 -0.71908,0.17052 -0.71908,-1.7052 z M 286.56275,647.73391 c 0,-7.87802 0.23562,-11.10085 0.52361,-7.16184 0.28798,3.93902 0.28798,10.38467 0,14.32368 -0.28799,3.93902 -0.52361,0.71619 -0.52361,-7.16184 z m -12.96994,0 c 0,-3.37629 0.27802,-4.7575 0.61783,-3.06936 0.3398,1.68815 0.3398,4.45058 0,6.13872 -0.33981,1.68815 -0.61783,0.30694 -0.61783,-3.06936 z m 347.69411,-13.6416 c 0,-1.87572 0.32359,-2.64305 0.71908,-1.7052 0.39549,0.93786 0.39549,2.47254 0,3.4104 -0.39549,0.93786 -0.71908,0.17052 -0.71908,-1.7052 z M 309.38476,610.9016 c 0,-8.62832 0.23148,-12.15808 0.5144,-7.84392 0.28292,4.31415 0.28292,11.37368 0,15.68784 -0.28292,4.31415 -0.5144,0.78439 -0.5144,-7.84392 z m 152.44662,-7.50288 c 0.008,-4.50173 0.27415,-6.17889 0.59144,-3.72701 0.3173,2.45187 0.31075,6.1351 -0.0145,8.18496 -0.32529,2.04985 -0.5849,0.0438 -0.57689,-4.45795 z m 173.89464,-10.91328 c 0.0107,-3.75144 0.28757,-5.12421 0.61526,-3.05061 0.32769,2.07361 0.31894,5.14297 -0.0195,6.8208 -0.33839,1.67784 -0.6065,-0.0187 -0.5958,-3.77019 z M 322.27069,548.83232 c 10e-4,-14.25547 0.21262,-19.9019 0.46945,-12.54762 0.25684,7.35427 0.25572,19.01784 -0.002,25.91903 -0.2582,6.9012 -0.46834,0.88406 -0.46696,-13.37141 z m 300.32933,3.9788 c 0.0684,-1.58917 0.40622,-1.91242 0.86132,-0.82418 0.41183,0.98475 0.36118,2.16134 -0.11255,2.61464 -0.47373,0.4533 -0.81068,-0.35241 -0.74877,-1.79046 z m 34.38085,-29.89784 c 0.029,-2.25086 0.34856,-3.00652 0.71003,-1.67924 0.36146,1.32729 0.33769,3.1689 -0.0528,4.09248 -0.39052,0.92358 -0.68626,-0.16238 -0.6572,-2.41324 z m 12.77797,-0.68208 c 0,-1.87572 0.32359,-2.64306 0.71908,-1.7052 0.39549,0.93786 0.39549,2.47254 0,3.4104 -0.39549,0.93786 -0.71908,0.17052 -0.71908,-1.7052 z M 272.18662,512 c 0.0107,-3.75144 0.28757,-5.12421 0.61526,-3.0506 0.32769,2.07361 0.31894,5.14297 -0.0195,6.8208 -0.33839,1.67783 -0.6065,-0.0188 -0.5958,-3.7702 z m 38.1972,-36.946 c 0.0684,-1.58917 0.40623,-1.91241 0.86133,-0.82418 0.41183,0.98475 0.36118,2.16134 -0.11255,2.61464 -0.47373,0.4533 -0.81068,-0.35241 -0.74878,-1.79046 z M 757.92371,306.17888 c 0,-0.28327 1.1227,-1.35755 2.49488,-2.38728 2.26115,-1.69684 2.31158,-1.64858 0.53826,0.51505 -1.86242,2.27235 -3.03314,2.99498 -3.03314,1.87223 z"
         id="path8" />
      <path
         style="fill:#a3a3a3;fill-opacity:1"
         d="m 668.65748,709.12111 c 0,-9.3786 0.22777,-13.2153 0.50616,-8.526 0.27839,4.6893 0.27839,12.3627 0,17.052 -0.27839,4.6893 -0.50616,0.8526 -0.50616,-8.526 z M 286.54135,672.97087 c -0.004,-6.75259 0.23673,-9.687 0.53573,-6.52092 0.29899,3.16609 0.30254,8.69094 0.008,12.27744 -0.29464,3.58651 -0.53927,0.99608 -0.54362,-5.75652 z m 35.78613,-43.65311 c -3.6e-4,-30.76181 0.18691,-43.54076 0.41618,-28.39768 0.22926,15.14309 0.22957,40.31184 6.7e-4,55.93056 -0.2289,15.61872 -0.41648,3.22892 -0.41685,-27.53288 z m 311.67769,43.53943 c 0.0684,-1.58917 0.40623,-1.91241 0.86133,-0.82418 0.41183,0.98476 0.36118,2.16134 -0.11255,2.61464 -0.47373,0.4533 -0.81068,-0.3524 -0.74878,-1.79046 z M 309.37891,640.23103 c 0.003,-8.25316 0.23803,-11.45358 0.52181,-7.11203 0.28377,4.34155 0.28114,11.09415 -0.006,15.00576 -0.28699,3.91162 -0.51917,0.35944 -0.51596,-7.89373 z m 311.96084,0 c 0.029,-2.25086 0.34857,-3.00652 0.71003,-1.67923 0.36146,1.32728 0.33769,3.1689 -0.0528,4.09248 -0.39051,0.92358 -0.68626,-0.16238 -0.6572,-2.41325 z m -347.74694,-3.4104 c 0,-3.37629 0.27802,-4.7575 0.61783,-3.06936 0.3398,1.68815 0.3398,4.45058 0,6.13872 -0.33981,1.68815 -0.61783,0.30694 -0.61783,-3.06936 z m 188.07473,-44.33519 c 0.0291,-2.25087 0.34857,-3.00652 0.71003,-1.67924 0.36146,1.32728 0.33769,3.1689 -0.0528,4.09248 -0.39052,0.92358 -0.68626,-0.16238 -0.65721,-2.41324 z m 174.03902,-11.59536 c 0,-3.3763 0.27803,-4.75751 0.61783,-3.06936 0.33981,1.68815 0.33981,4.45057 0,6.13872 -0.3398,1.68814 -0.61783,0.30693 -0.61783,-3.06936 z M 622.60002,556.9036 c 0.0684,-1.58917 0.40622,-1.91242 0.86132,-0.82418 0.41183,0.98475 0.36118,2.16134 -0.11255,2.61464 -0.47373,0.4533 -0.81068,-0.35241 -0.74877,-1.79046 z m 34.43367,-26.48744 c 0,-2.62601 0.29339,-3.70028 0.65198,-2.38728 0.35859,1.313 0.35859,3.46156 0,4.77456 -0.35859,1.313 -0.65198,0.23873 -0.65198,-2.38728 z m -334.9155,-14.32368 c 0.008,-4.50173 0.27416,-6.17888 0.59145,-3.72701 0.31729,2.45187 0.31075,6.13511 -0.0145,8.18496 -0.32529,2.04986 -0.5849,0.0438 -0.5769,-4.45795 z m 347.5281,1.25048 c 0.0684,-1.58917 0.40623,-1.91242 0.86133,-0.82418 0.41183,0.98475 0.36118,2.16134 -0.11255,2.61464 -0.47373,0.4533 -0.81068,-0.35241 -0.74878,-1.79046 z M 272.16716,500.40464 c 0,-3.3763 0.27802,-4.75751 0.61783,-3.06936 0.33981,1.68815 0.33981,4.45057 0,6.13872 -0.33981,1.68815 -0.61783,0.30694 -0.61783,-3.06936 z M 665.96963,357.16785 c 1.41921,-1.50058 2.90115,-2.72832 3.2932,-2.72832 0.39206,0 -0.44835,1.22774 -1.86756,2.72832 -1.41921,1.50057 -2.90115,2.72832 -3.2932,2.72832 -0.39205,0 0.44835,-1.22775 1.86756,-2.72832 z m 9.26669,-8.70001 c 0,-0.28327 1.12269,-1.35755 2.49488,-2.38728 2.26115,-1.69684 2.31158,-1.64859 0.53826,0.51505 -1.86242,2.27234 -3.03314,2.99498 -3.03314,1.87223 z"
         id="path7" />
      <path
         style="fill:#8c8c8c;fill-opacity:1"
         d="m 503.08972,730.00732 c 1.37218,-0.34312 3.61757,-0.34312 4.98976,0 1.37218,0.34312 0.24948,0.62386 -2.49488,0.62386 -2.74437,0 -3.86706,-0.28074 -2.49488,-0.62386 z M 293.54708,727.274 c 1.38711,-0.34587 3.31173,-0.32313 4.27693,0.0506 0.96521,0.37367 -0.16969,0.65666 -2.52201,0.62886 -2.35231,-0.0278 -3.14203,-0.33354 -1.75492,-0.67941 z m 13.54202,-0.0433 c 2.56239,-0.30361 6.41163,-0.29734 8.55387,0.0139 2.14225,0.31127 0.0457,0.55968 -4.65887,0.55202 -4.70463,-0.008 -6.45738,-0.26233 -3.895,-0.56594 z m -32.34639,-5.26375 c 0.0684,-1.58917 0.40622,-1.91241 0.86132,-0.82418 0.41183,0.98475 0.36118,2.16134 -0.11255,2.61464 -0.47373,0.4533 -0.81068,-0.35241 -0.74877,-1.79046 z m 138.551,-5.63977 c 2.16706,-0.31356 5.37477,-0.30518 7.12822,0.0186 1.75345,0.3238 -0.0196,0.58034 -3.94013,0.5701 -3.92052,-0.0102 -5.35516,-0.27517 -3.18809,-0.58872 z m -94.82498,-1.38411 c 3.33244,-0.28721 8.78554,-0.28721 12.11798,0 3.33244,0.2872 0.6059,0.52218 -6.05899,0.52218 -6.66489,0 -9.39143,-0.23498 -6.05899,-0.52218 z m 338.45931,-14.00692 c 0,-1.87572 0.32358,-2.64306 0.71908,-1.7052 0.39549,0.93786 0.39549,2.47254 0,3.4104 -0.3955,0.93786 -0.71908,0.17052 -0.71908,-1.7052 z m -370.42492,-7.50288 c 0.006,-5.25201 0.26401,-7.23341 0.57263,-4.40309 0.30861,2.83031 0.30344,7.12742 -0.0115,9.54912 -0.31495,2.4217 -0.56745,0.10599 -0.56113,-5.14603 z m 382.14411,-18.41616 c 0,-8.62831 0.23148,-12.15807 0.5144,-7.84392 0.28292,4.31416 0.28292,11.37369 0,15.68784 -0.28292,4.31416 -0.5144,0.78439 -0.5144,-7.84392 z m -115.65994,12.66452 c 2.15628,-0.31257 5.68475,-0.31257 7.84104,0 2.15629,0.31256 0.39205,0.56829 -3.92052,0.56829 -4.31258,0 -6.07681,-0.25573 -3.92052,-0.56829 z M 309.37891,668.87839 c 0.003,-8.25316 0.23803,-11.45358 0.52181,-7.11203 0.28377,4.34155 0.28114,11.09415 -0.006,15.00576 -0.28699,3.91162 -0.51917,0.35944 -0.51596,-7.89373 z m 324.79164,-1.36416 c 0.029,-2.25086 0.34857,-3.00652 0.71003,-1.67923 0.36146,1.32728 0.33769,3.1689 -0.0528,4.09248 -0.39052,0.92358 -0.68626,-0.16238 -0.65721,-2.41325 z m -12.88363,-21.14448 c 0,-1.87572 0.32359,-2.64306 0.71908,-1.7052 0.39549,0.93786 0.39549,2.47254 0,3.4104 -0.39549,0.93786 -0.71908,0.17052 -0.71908,-1.7052 z M 273.61227,625.22528 c 0.0107,-3.75144 0.28757,-5.12422 0.61526,-3.05061 0.32769,2.07361 0.31893,5.14297 -0.0195,6.8208 -0.3384,1.67783 -0.60651,-0.0187 -0.5958,-3.77019 z m 395.00187,-5.45664 c -0.004,-6.7526 0.23673,-9.68701 0.53572,-6.52093 0.29899,3.16609 0.30255,8.69094 0.008,12.27744 -0.29465,3.58651 -0.53928,0.99608 -0.54362,-5.75651 z M 461.77791,583.6184 c 0,-3.3763 0.27802,-4.75751 0.61783,-3.06936 0.3398,1.68815 0.3398,4.45057 0,6.13872 -0.33981,1.68814 -0.61783,0.30693 -0.61783,-3.06936 z m 173.98212,-15.68784 c 0.008,-4.50173 0.27415,-6.17888 0.59145,-3.72701 0.31729,2.45187 0.31074,6.1351 -0.0145,8.18496 -0.3253,2.04985 -0.5849,0.0438 -0.5769,-4.45795 z m -13.04746,-6.13872 c 0,-1.87572 0.32358,-2.64306 0.71907,-1.7052 0.39549,0.93786 0.39549,2.47254 0,3.4104 -0.39549,0.93786 -0.71907,0.17052 -0.71907,-1.7052 z m 34.32112,-23.19072 c 0,-2.62601 0.29339,-3.70028 0.65198,-2.38728 0.35859,1.313 0.35859,3.46155 0,4.77456 -0.35859,1.313 -0.65198,0.23873 -0.65198,-2.38728 z m -21.43749,-23.8728 c 0.0291,-2.25086 0.34856,-3.00652 0.71003,-1.67924 0.36146,1.32729 0.33769,3.1689 -0.0528,4.09248 -0.39052,0.92358 -0.68626,-0.16238 -0.6572,-2.41324 z M 322.06473,503.13296 c 0,-3.3763 0.27802,-4.75751 0.61783,-3.06936 0.3398,1.68815 0.3398,4.45057 0,6.13872 -0.33981,1.68815 -0.61783,0.30694 -0.61783,-3.06936 z m 151.06079,-10.91328 c 0,-2.62601 0.29339,-3.70028 0.65198,-2.38728 0.35859,1.313 0.35859,3.46156 0,4.77456 -0.35859,1.313 -0.65198,0.23873 -0.65198,-2.38728 z m -200.9389,-3.4104 c 0.0107,-3.75144 0.28757,-5.12421 0.61526,-3.0506 0.32769,2.07361 0.31894,5.14297 -0.0195,6.8208 -0.33839,1.67783 -0.6065,-0.0188 -0.5958,-3.7702 z m 38.30975,-6.13872 c 0,-1.87572 0.32359,-2.64306 0.71908,-1.7052 0.39549,0.93786 0.39549,2.47254 0,3.4104 -0.39549,0.93786 -0.71908,0.17052 -0.71908,-1.7052 z M 279.2635,472.11873 c 3.7245,-0.28101 9.81913,-0.28101 13.54363,0 3.72449,0.28102 0.67718,0.51094 -6.77182,0.51094 -7.44899,0 -10.49631,-0.22992 -6.77181,-0.51094 z m 49.27385,-5.3858 c 1.02913,-0.39407 2.25875,-0.34561 2.73248,0.10769 0.47373,0.4533 -0.36829,0.77572 -1.87116,0.71649 -1.66079,-0.0655 -1.99861,-0.38871 -0.86132,-0.82418 z M 678.70708,343.38171 c -0.65075,-1.00753 -0.45837,-1.28537 0.49828,-0.71963 0.85706,0.50685 2.21976,-0.16564 3.02821,-1.49442 0.80845,-1.32879 1.48942,-1.7238 1.51327,-0.87781 0.074,2.62674 -3.80365,5.00568 -5.03976,3.09186 z"
         id="path6" />
      <path
         style="fill:#767676;fill-opacity:1"
         d="m 274.85526,717.30607 c 0,-1.87572 0.32358,-2.64306 0.71907,-1.7052 0.39549,0.93786 0.39549,2.47254 0,3.4104 -0.39549,0.93786 -0.71907,0.17052 -0.71907,-1.7052 z m 132.09255,-0.93188 c 1.02913,-0.39406 2.25875,-0.3456 2.73248,0.1077 0.47373,0.4533 -0.36829,0.77572 -1.87116,0.71648 -1.66079,-0.0654 -1.99861,-0.3887 -0.86132,-0.82418 z m -120.5242,-8.61724 c 0,-3.37629 0.27802,-4.75751 0.61783,-3.06936 0.3398,1.68815 0.3398,4.45057 0,6.13872 -0.33981,1.68815 -0.61783,0.30694 -0.61783,-3.06936 z m 22.86378,-17.052 c 0.008,-4.50173 0.27415,-6.17888 0.59145,-3.72701 0.31729,2.45188 0.31074,6.13511 -0.0146,8.18496 -0.3253,2.04986 -0.5849,0.0438 -0.5769,-4.45795 z m 347.69348,4.09248 c 0.029,-2.25086 0.34856,-3.00652 0.71003,-1.67924 0.36146,1.32729 0.33769,3.1689 -0.0528,4.09248 -0.39052,0.92359 -0.68626,-0.16237 -0.6572,-2.41324 z m -22.86315,-33.42192 c 0,-1.87572 0.32359,-2.64306 0.71908,-1.7052 0.39549,0.93786 0.39549,2.47254 0,3.4104 -0.39549,0.93786 -0.71908,0.17052 -0.71908,-1.7052 z m 34.52366,-15.68784 c 0.003,-8.25316 0.23803,-11.45358 0.5218,-7.11203 0.28378,4.34155 0.28115,11.09415 -0.006,15.00576 -0.287,3.91162 -0.51917,0.35944 -0.51596,-7.89373 z m -47.35446,6.13872 c 0,-1.87572 0.32359,-2.64306 0.71908,-1.7052 0.39549,0.93786 0.39549,2.47254 0,3.4104 -0.39549,0.93786 -0.71908,0.17052 -0.71908,-1.7052 z M 273.63173,612.26576 c 0,-4.12659 0.26725,-5.81474 0.5939,-3.75144 0.32666,2.06329 0.32666,5.43958 0,7.50288 -0.32665,2.06329 -0.5939,0.37514 -0.5939,-3.75144 z m 394.95568,-13.6416 c 0,-5.62716 0.25165,-7.92918 0.55922,-5.1156 0.30758,2.81358 0.30758,7.41762 0,10.2312 -0.30757,2.81358 -0.55922,0.51156 -0.55922,-5.1156 z m -144.24433,-13.6416 c 0,-1.87572 0.32359,-2.64306 0.71908,-1.7052 0.39549,0.93786 0.39549,2.47254 0,3.4104 -0.39549,0.93786 -0.71908,0.17052 -0.71908,-1.7052 z m -50.91331,-46.38144 c 0,-23.63407 0.19419,-33.30256 0.43153,-21.48552 0.23733,11.81704 0.23733,31.154 0,42.97104 -0.23734,11.81703 -0.43153,2.14855 -0.43153,-21.48552 z m -11.56085,30.01152 c 0,-5.62716 0.25166,-7.92918 0.55923,-5.1156 0.30757,2.81358 0.30757,7.41762 0,10.2312 -0.30757,2.81358 -0.55923,0.51156 -0.55923,-5.1156 z m 160.84365,-1.36416 c 0,-1.87572 0.32358,-2.64306 0.71907,-1.7052 0.39549,0.93786 0.39549,2.47254 0,3.4104 -0.39549,0.93786 -0.71907,0.17052 -0.71907,-1.7052 z m 13.11964,-19.09824 c 0,-7.12774 0.24028,-10.04363 0.53396,-6.47976 0.29368,3.56387 0.29368,9.39565 0,12.95952 -0.29368,3.56387 -0.53396,0.64797 -0.53396,-6.47976 z m 21.23025,-0.68208 c 0.0158,-3.00115 0.30778,-4.06827 0.64878,-2.37138 0.34101,1.6969 0.32806,4.15239 -0.0288,5.45664 -0.35683,1.30426 -0.63583,-0.0841 -0.62001,-3.08526 z m -21.28788,-21.14448 c 0,-4.87687 0.25875,-6.87196 0.57499,-4.43352 0.31625,2.43844 0.31625,6.4286 0,8.86704 -0.31624,2.43844 -0.57499,0.44335 -0.57499,-4.43352 z m -174.27242,-13.0732 c 0.0684,-1.58917 0.40623,-1.91242 0.86133,-0.82418 0.41183,0.98475 0.36118,2.16134 -0.11255,2.61464 -0.47373,0.4533 -0.81068,-0.35241 -0.74878,-1.79046 z m 208.14413,-2.72832 c 0.0684,-1.58917 0.40623,-1.91241 0.86133,-0.82418 0.41183,0.98475 0.36118,2.16134 -0.11255,2.61464 -0.47373,0.4533 -0.81068,-0.35241 -0.74878,-1.79046 z M 321.95436,494.26592 c 0.029,-2.25086 0.34857,-3.00652 0.71003,-1.67924 0.36146,1.32729 0.33769,3.1689 -0.0528,4.09248 -0.39051,0.92358 -0.68626,-0.16238 -0.6572,-2.41324 z m -11.45799,-6.13872 c 0,-1.87572 0.32359,-2.64306 0.71908,-1.7052 0.39549,0.93786 0.39549,2.47254 0,3.4104 -0.39549,0.93786 -0.71908,0.17052 -0.71908,-1.7052 z M 272.13839,477.896 c 0.0158,-3.00115 0.30777,-4.06827 0.64878,-2.37137 0.341,1.69689 0.32806,4.15238 -0.0288,5.45664 -0.35683,1.30425 -0.63583,-0.0841 -0.62001,-3.08527 z m 372.44657,-10.2312 c 1.41921,-1.50057 2.90115,-2.72832 3.2932,-2.72832 0.39205,0 -0.44835,1.22775 -1.86756,2.72832 -1.41921,1.50058 -2.90115,2.72832 -3.2932,2.72832 -0.39205,0 0.44835,-1.22774 1.86756,-2.72832 z m 13.54362,-108.28368 c 0,-0.28327 1.1227,-1.35755 2.49488,-2.38728 2.26115,-1.69684 2.31158,-1.64859 0.53826,0.51505 -1.86242,2.27234 -3.03314,2.99498 -3.03314,1.87223 z"
         id="path5" />
      <path
         style="fill:#606060;fill-opacity:1"
         d="m 402.67087,716.37419 c 1.02914,-0.39406 2.25876,-0.3456 2.73249,0.1077 0.47373,0.4533 -0.36829,0.77572 -1.87116,0.71648 -1.6608,-0.0654 -1.99861,-0.3887 -0.86133,-0.82418 z m -127.81561,-4.52476 c 0,-1.87572 0.32358,-2.64306 0.71907,-1.7052 0.39549,0.93786 0.39549,2.47254 0,3.4104 -0.39549,0.93786 -0.71907,0.17052 -0.71907,-1.7052 z m 382.23597,-25.91904 c 0,-3.37629 0.27803,-4.75751 0.61783,-3.06936 0.33981,1.68815 0.33981,4.45057 0,6.13872 -0.3398,1.68815 -0.61783,0.30694 -0.61783,-3.06936 z m -35.91686,-29.44312 c 0.0684,-1.58916 0.40623,-1.91241 0.86133,-0.82418 0.41183,0.98476 0.36118,2.16134 -0.11255,2.61464 -0.47373,0.4533 -0.81068,-0.3524 -0.74878,-1.79046 z m 12.99618,-1.25048 c 0.029,-2.25086 0.34857,-3.00652 0.71003,-1.67923 0.36146,1.32728 0.33769,3.1689 -0.0528,4.09248 -0.39052,0.92358 -0.68626,-0.16238 -0.65721,-2.41325 z M 473.42149,618.40448 c 7.2e-4,-21.00807 0.19863,-29.41167 0.43979,-18.67467 0.24116,10.737 0.24057,27.92541 -0.001,38.19648 -0.24188,10.27106 -0.43919,1.48625 -0.43848,-19.52181 z M 273.63173,598.62416 c 0,-4.12659 0.26725,-5.81474 0.5939,-3.75144 0.32666,2.06329 0.32666,5.43958 0,7.50288 -0.32665,2.06329 -0.5939,0.37514 -0.5939,-3.75144 z m 394.90358,-16.36992 c 0,-4.12659 0.26726,-5.81473 0.59391,-3.75144 0.32665,2.06329 0.32665,5.43959 0,7.50288 -0.32665,2.06329 -0.59391,0.37514 -0.59391,-3.75144 z m -45.82274,-9.54912 c 0,-1.87572 0.32358,-2.64306 0.71907,-1.7052 0.39549,0.93786 0.39549,2.47254 0,3.4104 -0.39549,0.93786 -0.71907,0.17052 -0.71907,-1.7052 z m 34.39812,-14.32368 c 0.0107,-3.75144 0.28757,-5.12421 0.61526,-3.0506 0.32769,2.0736 0.31894,5.14296 -0.0195,6.82079 -0.33839,1.67784 -0.6065,-0.0187 -0.5958,-3.77019 z M 461.90355,546.78608 c 0,-7.12774 0.24029,-10.04363 0.53397,-6.47976 0.29368,3.56387 0.29368,9.39565 0,12.95952 -0.29368,3.56387 -0.53397,0.64797 -0.53397,-6.47976 z m -0.28884,-28.64736 c 0,-1.87572 0.32359,-2.64306 0.71908,-1.7052 0.39549,0.93786 0.39549,2.47254 0,3.4104 -0.39549,0.93786 -0.71908,0.17052 -0.71908,-1.7052 z m 208.03158,-11.70904 c 0.0684,-1.58917 0.40623,-1.91241 0.86133,-0.82418 0.41183,0.98475 0.36118,2.16134 -0.11255,2.61464 -0.47373,0.4533 -0.81068,-0.35241 -0.74878,-1.79046 z M 310.5492,494.26592 c 0.0291,-2.25086 0.34857,-3.00652 0.71003,-1.67924 0.36146,1.32729 0.33769,3.1689 -0.0528,4.09248 -0.39052,0.92358 -0.68626,-0.16238 -0.65721,-2.41324 z m 11.35233,-6.13872 c 0,-1.87572 0.32359,-2.64306 0.71908,-1.7052 0.39549,0.93786 0.39549,2.47254 0,3.4104 -0.39549,0.93786 -0.71908,0.17052 -0.71908,-1.7052 z m 336.3396,-2.15992 c 0.0684,-1.58917 0.40623,-1.91241 0.86133,-0.82418 0.41183,0.98475 0.36118,2.16134 -0.11255,2.61464 -0.47373,0.4533 -0.81068,-0.35241 -0.74878,-1.79046 z m -22.98244,-9.0944 c 5.90782,-6.02302 7.1878,-7.10604 7.1878,-6.08171 0,0.21893 -3.04731,3.13482 -6.77181,6.47976 l -6.77181,6.08171 z"
         id="path4" />
      <path
         style="fill:#494949;fill-opacity:1"
         d="m 656.37206,728.59486 c 2.56238,-0.30361 6.41162,-0.29734 8.55387,0.0139 2.14224,0.31127 0.0457,0.55968 -4.65888,0.55202 -4.70463,-0.008 -6.45737,-0.26233 -3.89499,-0.56594 z M 452.47933,717.76677 c 0.98013,-0.37843 2.58398,-0.37843 3.56412,0 0.98013,0.37844 0.1782,0.68807 -1.78206,0.68807 -1.96026,0 -2.76219,-0.30963 -1.78206,-0.68807 z m 39.91806,0 c 0.98013,-0.37843 2.58398,-0.37843 3.56411,0 0.98013,0.37844 0.1782,0.68807 -1.78206,0.68807 -1.96026,0 -2.76219,-0.30963 -1.78205,-0.68807 z M 389.7765,716.31742 c 2.56238,-0.30361 6.41162,-0.29734 8.55387,0.0139 2.14224,0.31127 0.0457,0.55968 -4.65888,0.55202 -4.70463,-0.008 -6.45737,-0.26233 -3.89499,-0.56594 z m -92.66691,-1.36416 c 2.56238,-0.30361 6.41162,-0.29734 8.55387,0.0139 2.14224,0.31127 0.0457,0.55968 -4.65888,0.55202 -4.70463,-0.008 -6.45737,-0.26233 -3.89499,-0.56594 z m -22.14868,-9.92463 c 0,-2.62601 0.29339,-3.70028 0.65198,-2.38728 0.35859,1.31301 0.35859,3.46156 0,4.77456 -0.35859,1.31301 -0.65198,0.23873 -0.65198,-2.38728 z m 292.99564,-17.27337 c 0.98014,-0.37844 2.58399,-0.37844 3.56412,0 0.98013,0.37843 0.1782,0.68806 -1.78206,0.68806 -1.96026,0 -2.76219,-0.30963 -1.78206,-0.68806 z m 89.32676,-29.10807 c 0,-12.37975 0.21613,-17.44419 0.48029,-11.25432 0.26416,6.18988 0.26416,16.31877 0,22.50864 -0.26416,6.18988 -0.48029,1.12544 -0.48029,-11.25432 z m -184.00923,6.8208 c 0,-5.62716 0.25165,-7.92918 0.55923,-5.1156 0.30757,2.81358 0.30757,7.41762 0,10.2312 -0.30758,2.81358 -0.55923,0.51156 -0.55923,-5.1156 z m 147.90029,-4.88824 c 0.0684,-1.58916 0.40623,-1.91241 0.86133,-0.82418 0.41183,0.98476 0.36118,2.16134 -0.11255,2.61464 -0.47373,0.4533 -0.81068,-0.3524 -0.74878,-1.79046 z m 12.99618,-12.16376 c 0.029,-2.25086 0.34857,-3.00652 0.71003,-1.67923 0.36146,1.32728 0.33769,3.1689 -0.0528,4.09248 -0.39052,0.92358 -0.68626,-0.16238 -0.65721,-2.41325 z M 273.59281,586.34672 c 0,-3.3763 0.27802,-4.75751 0.61783,-3.06936 0.3398,1.68814 0.3398,4.45057 0,6.13872 -0.33981,1.68814 -0.61783,0.30693 -0.61783,-3.06936 z m 349.11976,-8.18496 c 0,-1.87572 0.32358,-2.64306 0.71907,-1.7052 0.39549,0.93786 0.39549,2.47254 0,3.4104 -0.39549,0.93786 -0.71907,0.17052 -0.71907,-1.7052 z m 34.39812,-7.50288 c 0.0107,-3.75144 0.28757,-5.12421 0.61526,-3.05061 0.32769,2.07361 0.31894,5.14297 -0.0195,6.8208 -0.33839,1.67784 -0.6065,-0.0188 -0.5958,-3.77019 z m 11.3857,-0.68208 c 0,-3.3763 0.27802,-4.75751 0.61783,-3.06936 0.33981,1.68815 0.33981,4.45057 0,6.13872 -0.33981,1.68815 -0.61783,0.30693 -0.61783,-3.06936 z M 461.81683,527.68784 c 0,-4.12658 0.26726,-5.81473 0.59391,-3.75144 0.32665,2.06329 0.32665,5.43959 0,7.50288 -0.32665,2.06329 -0.59391,0.37514 -0.59391,-3.75144 z M 285.10781,497.67632 c 0,-6.37745 0.24557,-8.9864 0.54572,-5.79768 0.30015,3.18872 0.30015,8.40664 0,11.59536 -0.30015,3.18872 -0.54572,0.57977 -0.54572,-5.79768 z m 25.44139,3.4104 c 0.0291,-2.25086 0.34857,-3.00652 0.71003,-1.67924 0.36146,1.32729 0.33769,3.1689 -0.0528,4.09248 -0.39052,0.92358 -0.68626,-0.16238 -0.65721,-2.41324 z m 359.20964,0.68208 c 0,-1.87572 0.32359,-2.64306 0.71908,-1.7052 0.39549,0.93786 0.39549,2.47254 0,3.4104 -0.39549,0.93786 -0.71908,0.17052 -0.71908,-1.7052 z m -0.11255,-14.43736 c 0.0684,-1.58917 0.40623,-1.91241 0.86133,-0.82418 0.41183,0.98475 0.36118,2.16134 -0.11255,2.61464 -0.47373,0.4533 -0.81068,-0.35241 -0.74878,-1.79046 z m -347.85731,-4.09248 c 0.0684,-1.58917 0.40623,-1.91241 0.86133,-0.82418 0.41183,0.98475 0.36118,2.16134 -0.11255,2.61464 -0.47373,0.4533 -0.81068,-0.35241 -0.74878,-1.79046 z M 680.9389,394.84928 c 0,-0.28328 1.12269,-1.35755 2.49488,-2.38728 2.26115,-1.69684 2.31157,-1.64859 0.53826,0.51504 -1.86242,2.27235 -3.03314,2.99499 -3.03314,1.87224 z"
         id="path3" />
      <path
         style="fill:#333333;fill-opacity:1"
         d="m 464.32435,731.28099 c -3.18763,-2.17923 -11.21303,-2.45994 -95.32796,-3.33433 -50.51602,-0.52513 -92.17109,-1.2646 -92.56683,-1.64327 -0.80706,-0.77225 -3.03834,-151.77237 -3.15159,-213.28027 l -0.0735,-39.90168 h 16.39491 c 13.20386,0 16.39492,0.37662 16.39492,1.93498 0,2.57899 -8.18604,7.30022 -15.01,8.65688 l -5.4887,1.0912 0.39155,114.54559 c 0.21535,63.00007 0.71085,114.85252 1.10111,115.22766 0.39026,0.37515 35.45981,1.13402 77.93234,1.6864 42.47252,0.55237 83.63817,1.6988 91.47922,2.54762 17.05427,1.84618 18.21091,1.8479 32.78982,0.0488 6.57337,-0.81117 45.12981,-1.43858 91.01017,-1.48098 l 79.605,-0.0736 -1.03875,-5.79768 c -1.36779,-7.63424 -1.33927,-198.78818 0.0329,-220.26689 0.95806,-14.99696 1.35066,-16.75287 3.92023,-17.53324 4.97788,-1.51178 6.6555,1.94583 6.99601,14.41894 0.17411,6.37745 -0.21892,62.92373 -0.87338,125.6584 l -1.18994,114.06303 -11.53347,0.85926 c -6.3434,0.4726 -44.57278,0.91475 -84.95416,0.98256 -40.38139,0.0678 -77.26995,0.71852 -81.97458,1.44603 -17.01042,2.63044 -21.19351,2.65475 -24.86533,0.14451 z m 0.61471,-25.21977 c -25.83811,-20.00743 -72.18891,-24.31808 -127.76418,-11.88214 -9.90232,2.21581 -20.09042,4.02875 -22.64022,4.02875 h -4.63602 l 0.6311,-118.01618 c 0.46818,-87.5515 1.06143,-118.42796 2.29817,-119.61137 0.91689,-0.87734 5.36791,-2.05953 9.89114,-2.62707 4.52324,-0.56754 15.90827,-2.60477 25.30007,-4.52719 39.36231,-8.0571 86.94172,-0.64936 113.61861,17.68952 l 7.04183,4.84086 9.64906,-6.13803 c 11.89978,-7.56977 31.93758,-14.18588 46.02292,-15.1959 10.68291,-0.76605 18.12794,0.37171 18.39486,2.81113 0.0821,0.75029 -8.97302,3.99675 -20.12248,7.21435 -22.51645,6.49799 -34.58001,11.70529 -43.72044,18.87217 l -6.10871,4.78974 0.007,88.92011 c 0.004,48.90606 0.41915,94.86996 0.92244,102.142 l 0.91507,13.2219 6.937,-3.36364 c 21.0987,-10.23023 47.73177,-15.09142 75.33153,-13.74976 16.39541,0.79699 43.29807,4.8254 55.8461,8.36241 6.0171,1.69608 6.75204,1.65694 7.59901,-0.40468 0.5157,-1.2553 1.49888,-32.05516 2.18484,-68.44412 1.67406,-88.80588 2.09017,-92.84654 10.71216,-104.0197 2.21052,-2.8646 2.31562,3.17582 1.59368,91.58885 -0.43867,53.72261 -1.33222,95.19091 -2.0663,95.89333 -0.77409,0.74071 -11.54231,-1.09426 -26.81987,-4.57027 l -25.52648,-5.80788 -29.93854,-0.0509 -29.93854,-0.0509 -13.54363,4.40046 c -12.21705,3.96943 -18.16113,7.09899 -30.889,16.26302 l -4.06863,2.92941 z m -1.70868,-114.5989 c 0.26913,-52.70773 0.94782,-97.36692 1.5082,-99.24264 0.92608,-3.09977 0.008,-4.05285 -10.07532,-10.46394 -6.10182,-3.87944 -13.01883,-7.95494 -15.37114,-9.05665 -20.84632,-9.76346 -59.84856,-12.82456 -98.10027,-7.69943 -11.55385,1.54804 -14.18908,1.56156 -15.14748,0.0777 -0.95436,-1.4776 -1.38159,-1.46793 -2.40768,0.0545 -1.41021,2.09235 -2.63912,220.79851 -1.24067,220.79851 0.49619,0 7.11306,-1.47945 14.70415,-3.28767 22.90283,-5.45551 34.17677,-6.807 56.57132,-6.78161 23.88847,0.0271 42.16599,2.58327 56.57273,7.91194 4.95381,1.83229 9.79216,3.37419 10.75188,3.42646 1.35619,0.0739 1.85397,-21.256 2.23428,-95.73719 z m 62.66282,-11.9364 c 0.44664,-4.12659 4.11514,-20.08726 8.15224,-35.46816 20.5393,-78.25249 39.62741,-127.88824 61.11665,-158.92463 25.96391,-37.49905 78.54784,-74.65095 132.95907,-93.93899 22.46816,-7.96466 51.18761,-12.45656 51.18711,-8.00598 -6e-5,0.54842 -6.33197,7.51229 -14.07091,15.47527 -15.69956,16.15405 -21.56394,23.96686 -33.67452,44.86282 -13.86745,23.92732 -18.5931,29.57533 -31.37774,37.50208 -13.25387,8.21769 -22.22003,15.84831 -19.62339,16.70043 0.9687,0.31789 3.53486,-0.57439 5.70257,-1.98285 3.67617,-2.38858 11.09888,-5.83822 12.56226,-5.83822 3.42963,0 -8.35703,18.91242 -30.60634,49.10975 -15.7504,21.37684 -37.3627,43.41027 -58.07694,59.2086 -15.43997,11.77574 -29.96488,20.80781 -31.34239,19.48971 -0.46093,-0.44106 -0.15571,-2.67487 0.67826,-4.96403 0.83397,-2.28917 1.09282,-4.16212 0.57521,-4.16212 -0.51761,0 -3.67849,2.57067 -7.02418,5.7126 -3.34568,3.14193 -6.45822,5.35362 -6.91675,4.91487 -1.19595,-1.14438 5.59388,-19.33896 13.82131,-37.03669 21.81169,-46.91832 52.87068,-90.94847 89.38708,-126.71773 9.00002,-8.81589 15.63827,-16.02888 14.75166,-16.02888 -2.70812,0 -25.82948,19.33144 -41.0163,34.29313 -30.25362,29.80517 -57.62376,70.7658 -78.98735,118.20808 -11.48125,25.49651 -23.40051,56.95426 -27.64695,72.9669 -3.68824,13.90772 -5.15527,17.23839 -8.89417,20.19287 -2.2752,1.79786 -2.39036,1.40573 -1.63549,-5.56883 z"
         id="path2" />
    </g>
  </g>
</svg>
