<?xml version="1.0" standalone="no"?>
<!DOCTYPE svg PUBLIC "-//W3C//DTD SVG 20010904//EN"
 "http://www.w3.org/TR/2001/REC-SVG-20010904/DTD/svg10.dtd">
<svg version="1.0" xmlns="http://www.w3.org/2000/svg"
 width="99.000000pt" height="129.000000pt" viewBox="0 0 99.000000 129.000000"
 preserveAspectRatio="xMidYMid meet">

<g transform="translate(0.000000,129.000000) scale(0.100000,-0.100000)"
fill="#000000" stroke="none">
<path d="M96 1098 c4 -7 21 -31 38 -52 25 -32 31 -50 32 -97 2 -32 10 -73 18
-91 9 -18 23 -60 31 -93 19 -71 53 -133 107 -190 34 -38 38 -48 38 -96 l0 -54
155 0 155 0 0 182 c0 176 1 182 23 210 32 38 47 85 47 146 0 43 5 55 35 88 38
43 46 65 18 54 -78 -31 -103 -36 -140 -26 -74 21 -141 11 -178 -25 -14 -14
-20 -15 -34 -6 -56 41 -105 50 -189 32 -42 -9 -56 -8 -101 10 -61 24 -65 24
-55 8z m288 -59 c14 -11 29 -35 34 -52 6 -25 14 -33 35 -35 22 -3 27 1 27 17
0 11 14 36 31 56 27 31 37 35 78 35 40 0 52 -5 77 -31 23 -24 29 -39 29 -75 0
-39 -5 -50 -33 -75 -45 -40 -99 -40 -145 1 -22 19 -46 30 -65 30 -21 0 -40
-10 -60 -30 -25 -25 -39 -30 -77 -30 -40 0 -52 5 -76 31 -41 44 -41 108 0 150
37 37 104 41 145 8z m94 -182 c8 -9 5 -19 -8 -37 -18 -24 -19 -24 -39 -6 -12
11 -21 25 -21 32 0 23 51 32 68 11z m-47 -102 c17 -20 17 -20 35 1 17 19 27
21 87 17 l67 -5 0 -149 c0 -82 -4 -149 -8 -149 -26 0 -131 34 -161 52 -86 52
-158 134 -183 210 l-15 43 81 0 c69 0 84 -3 97 -20z"/>
<path d="M260 1010 c-46 -46 -9 -130 58 -130 62 0 94 73 56 128 -20 29 -85 31
-114 2z m105 -50 c4 -12 1 -27 -5 -35 -27 -33 -78 -5 -65 35 4 14 15 20 35 20
20 0 31 -6 35 -20z"/>
<path d="M531 1004 c-62 -79 43 -170 114 -99 49 49 16 125 -55 125 -30 0 -43
-6 -59 -26z m77 -56 c2 -19 -2 -28 -18 -33 -24 -8 -50 10 -50 35 0 24 10 31
40 28 19 -2 26 -10 28 -30z"/>
<path d="M403 413 c-18 -2 -33 -7 -33 -11 0 -4 16 -31 35 -60 l36 -52 72 0 72
0 37 58 38 57 -38 7 c-39 7 -164 8 -219 1z"/>
<path d="M464 255 c9 -14 23 -36 32 -50 l17 -26 28 43 c16 24 29 46 29 51 0 4
-28 7 -61 7 l-61 0 16 -25z"/>
</g>
</svg>
