<?xml version="1.0" encoding="UTF-8" standalone="no"?>
<!-- Created with Inkscape (http://www.inkscape.org/) -->

<svg
   width="1023.9999"
   height="1023.9999"
   viewBox="0 0 270.93333 270.93333"
   version="1.1"
   id="svg1"
   xml:space="preserve"
   xmlns="http://www.w3.org/2000/svg"
   xmlns:svg="http://www.w3.org/2000/svg"><defs
     id="defs1" /><g
     id="layer1"><path
       style="fill:#9cffff;fill-opacity:1"
       d="m 82.924995,216.48639 c -1.296141,-0.20607 -3.857217,-1.23197 -5.159375,-2.0667 -1.503647,-0.96391 -3.313147,-2.83828 -3.974281,-4.11677 -0.806648,-1.55989 -0.172089,-3.24598 1.558403,-4.14085 1.24451,-0.64356 2.2508,-0.26535 4.001742,1.50406 1.772868,1.79156 3.162546,2.39992 5.620141,2.46034 1.253081,0.0308 3.106847,-0.45151 10.388786,-2.70297 31.775249,-9.82442 38.086139,-11.39298 45.850209,-11.39598 4.5676,-0.002 6.50875,0.38842 11.36909,2.28526 4.83658,1.88757 7.22579,2.50352 9.85257,2.54002 4.41019,0.0613 7.31292,-1.2392 15.47812,-6.93454 7.80909,-5.44695 11.9349,-7.41891 15.51632,-7.41616 2.0704,0.002 4.05908,1.6627 4.06186,3.3928 10e-4,0.81908 -1.36945,2.16246 -2.20653,2.16246 -0.83931,0 -4.88355,1.4205 -6.78831,2.38432 -1.74746,0.88422 -5.04528,3.07451 -9.525,6.32615 -1.81901,1.32034 -4.61698,3.05517 -6.21771,3.85517 -3.81453,1.90641 -6.25317,2.51561 -10.07007,2.51561 -3.59595,0 -6.15656,-0.59387 -11.80034,-2.73679 -4.80054,-1.82274 -6.50944,-2.13589 -10.64744,-1.95111 -7.21943,0.32237 -15.04881,2.33192 -43.132292,11.07064 -9.403938,2.92621 -11.57019,3.37931 -14.175893,2.96504 z m -5.289646,-11.89178 c 0.0033,-0.37872 0.921858,-3.21729 1.916628,-5.92266 2.092754,-5.69144 11.403602,-29.18491 14.155926,-35.71875 12.723847,-30.20559 28.367807,-56.09958 42.332747,-70.069458 2.32238,-2.323207 3.79586,-3.976038 3.4491,-3.86893 -2.08727,0.644716 -4.1039,1.492953 -5.39395,2.268807 -5.78118,3.476872 -14.68976,13.249961 -22.39999,24.573751 -8.56255,12.57556 -17.116836,29.95271 -27.058818,54.96718 -1.286877,3.23784 -2.421989,5.88698 -2.522471,5.88698 -0.323623,0 -1.295427,-2.55846 -1.829393,-4.81622 -0.822279,-3.47684 -1.075927,-6.67897 -1.07202,-13.53351 0.0071,-12.5373 1.715693,-23.51461 4.515325,-29.01068 1.422803,-2.79317 1.270765,-2.84102 3.085069,0.97099 0.88861,1.86705 1.770734,3.87088 1.960276,4.45297 l 0.344621,1.05833 0.207016,-1.05833 c 0.113859,-0.58209 0.571477,-3.0824 1.01693,-5.55625 2.793185,-15.51218 6.651536,-25.7655 12.793895,-33.998957 1.70709,-2.288258 8.19492,-9.260416 8.61713,-9.260416 0.18922,0 2.65704,6.129079 2.65704,6.599025 0,0.154078 0.11906,0.280141 0.26458,0.280141 0.14552,0 0.26459,-0.243324 0.26459,-0.54072 0,-0.660144 1.66881,-5.182988 2.58278,-6.999904 1.69771,-3.374942 5.11596,-7.346763 8.65702,-10.058999 2.69294,-2.062626 8.29249,-5.373464 11.37281,-6.72439 1.43138,-0.627751 5.70996,-2.244089 9.50796,-3.591863 3.79801,-1.347774 8.29719,-3.009421 9.99818,-3.692549 3.51662,-1.41229 10.16006,-4.624884 12.50494,-6.047068 0.86611,-0.525298 1.61599,-0.91384 1.66641,-0.863426 0.0504,0.05041 -0.32308,1.51881 -0.82998,3.263103 -1.20668,4.152273 -2.07592,8.370039 -2.93092,14.221442 -1.16602,7.980027 -2.30933,12.40011 -4.1747,16.139583 -3.03966,6.093552 -9.82603,12.226088 -18.58888,16.797948 l -2.64584,1.38041 2.77813,-0.16505 c 2.41748,-0.14363 5.68552,-0.67738 8.33437,-1.36122 0.68608,-0.17712 0.57527,-0.023 -0.81692,1.13653 -3.01647,2.51225 -4.14864,4.13525 -6.64416,9.52463 -1.71324,3.69995 -3.11719,5.78483 -5.4352,8.07135 -2.14055,2.11148 -3.89371,3.33729 -8.00858,5.59964 l -3.04938,1.67654 1.39379,0.18099 c 3.10691,0.40345 7.78553,2.13021 8.67472,3.20162 0.22515,0.27129 -0.15255,0.7868 -1.67697,2.2888 -2.13601,2.1046 -3.96335,4.78938 -10.11492,14.86116 -3.95714,6.47891 -5.86107,8.86102 -8.70329,10.88919 -0.89749,0.64043 -4.95894,2.90761 -9.02544,5.03816 -9.826972,5.14862 -10.60581,5.58037 -12.19625,6.76096 -1.966991,1.46011 -4.186242,4.74695 -8.558499,12.67562 -4.373568,7.93106 -11.383942,19.08161 -11.375412,18.0935 z"
       id="path1" /></g></svg>
